<svg xmlns="http://www.w3.org/2000/svg" viewBox="0 0 960 498" width="960" height="498" role="img" aria-label="refs.json names the index array for the ElectricalSeries. Reading data chunk c/297/17 of the ElectricalSeries: row 297 falls in index chunk 0, entry [297, 17] of that index chunk gives the byte offset and size, and one HTTP range request fetches those bytes from the HDF5 file."><title>refs.json names the index array for the ElectricalSeries. Reading data chunk c/297/17 of the ElectricalSeries: row 297 falls in index chunk 0, entry [297, 17] of that index chunk gives the byte offset and size, and one HTTP range request fetches those bytes from the HDF5 file.</title><style>text{font-family:-apple-system,BlinkMacSystemFont,"Segoe UI","Noto Sans",Helvetica,Arial,sans-serif;font-size:13px}.mono{font-family:ui-monospace,SFMono-Regular,"SF Mono",Menlo,Consolas,"Liberation Mono",monospace;font-size:12px;white-space:pre}.sm11{font-size:11px}.b{font-weight:600}.none{fill:none}.bg{fill:#ffffff}text{fill:#1f2328}.fg{fill:#1f2328}.sfg{stroke:#1f2328}.m{fill:#59636e}.sm{stroke:#59636e}.sb{stroke:#d1d9e0}.panel{fill:#f6f8fa}.file{fill:#e6eaef}.meta{fill:#818b98}.ref{fill:#0969da}.sref{stroke:#0969da}.refbg{fill:#ddf4ff}.hi{fill:#bc4c00}.shi{stroke:#bc4c00}.hibg{fill:#fff1e5}@media (prefers-color-scheme:dark){.bg{fill:#0d1117}text{fill:#f0f6fc}.fg{fill:#f0f6fc}.sfg{stroke:#f0f6fc}.m{fill:#9198a1}.sm{stroke:#9198a1}.sb{stroke:#3d444d}.panel{fill:#151b23}.file{fill:#262c36}.meta{fill:#656c76}.ref{fill:#4493f8}.sref{stroke:#4493f8}.refbg{fill:#0c2d6b}.hi{fill:#f0883e}.shi{stroke:#f0883e}.hibg{fill:#3d1f00}}</style><defs><marker id="ah-fg" viewBox="0 0 10 10" refX="9" refY="5" markerWidth="8" markerHeight="8" markerUnits="userSpaceOnUse" orient="auto-start-reverse"><path d="M0,0 L10,5 L0,10 z" class="fg"/></marker><marker id="ah-m" viewBox="0 0 10 10" refX="9" refY="5" markerWidth="8" markerHeight="8" markerUnits="userSpaceOnUse" orient="auto-start-reverse"><path d="M0,0 L10,5 L0,10 z" class="m"/></marker><marker id="ah-ref" viewBox="0 0 10 10" refX="9" refY="5" markerWidth="8" markerHeight="8" markerUnits="userSpaceOnUse" orient="auto-start-reverse"><path d="M0,0 L10,5 L0,10 z" class="ref"/></marker><marker id="ah-hi" viewBox="0 0 10 10" refX="9" refY="5" markerWidth="8" markerHeight="8" markerUnits="userSpaceOnUse" orient="auto-start-reverse"><path d="M0,0 L10,5 L0,10 z" class="hi"/></marker></defs><rect x="0" y="0" width="960" height="498" rx="6" class="bg"/><text x="24.0" y="26.0" class="mono b" style="font-size:12px">refs.json</text><rect x="16.0" y="34.0" width="928.0" height="22.0" class="panel sb" rx="3" stroke-width="1"/><text x="24.0" y="49.0" class="mono sm11">&quot;indexes&quot;: {&quot;acquisition/ElectricalSeries/data&quot;: {&quot;url&quot;: &quot;https://…/download/&quot;, &quot;index&quot;: </text><rect x="611.4" y="37.0" width="275.5" height="16.0" class="refbg" rx="2"/><text x="613.4" y="49.0" class="mono sm11">&quot;index/acquisition/ElectricalSeries/data&quot;}}</text><g transform="translate(0,58)"><text x="64.0" y="32.0" class="b">ElectricalSeries/data</text><text x="64.0" y="50.0" class="m sm11">2,048 × 160 chunks,</text><text x="64.0" y="64.0" class="m sm11">each 241,790 samples (12 s) × 1 channel</text><text x="64.0" y="90.0" class="m sm11">channel 0</text><text x="224.0" y="90.0" class="m sm11" text-anchor="end">159</text><rect x="64.0" y="96.0" width="160.0" height="312.0" class="panel sb" stroke-width="1"/><line x1="74.0" y1="96.0" x2="74.0" y2="408.0" class="sb" stroke-width="0.5"/><line x1="84.0" y1="96.0" x2="84.0" y2="408.0" class="sb" stroke-width="0.5"/><line x1="94.0" y1="96.0" x2="94.0" y2="408.0" class="sb" stroke-width="0.5"/><line x1="104.0" y1="96.0" x2="104.0" y2="408.0" class="sb" stroke-width="0.5"/><line x1="114.0" y1="96.0" x2="114.0" y2="408.0" class="sb" stroke-width="0.5"/><line x1="124.0" y1="96.0" x2="124.0" y2="408.0" class="sb" stroke-width="0.5"/><line x1="134.0" y1="96.0" x2="134.0" y2="408.0" class="sb" stroke-width="0.5"/><line x1="144.0" y1="96.0" x2="144.0" y2="408.0" class="sb" stroke-width="0.5"/><line x1="154.0" y1="96.0" x2="154.0" y2="408.0" class="sb" stroke-width="0.5"/><line x1="164.0" y1="96.0" x2="164.0" y2="408.0" class="sb" stroke-width="0.5"/><line x1="174.0" y1="96.0" x2="174.0" y2="408.0" class="sb" stroke-width="0.5"/><line x1="184.0" y1="96.0" x2="184.0" y2="408.0" class="sb" stroke-width="0.5"/><line x1="194.0" y1="96.0" x2="194.0" y2="408.0" class="sb" stroke-width="0.5"/><line x1="204.0" y1="96.0" x2="204.0" y2="408.0" class="sb" stroke-width="0.5"/><line x1="214.0" y1="96.0" x2="214.0" y2="408.0" class="sb" stroke-width="0.5"/><line x1="64.0" y1="105.5" x2="224.0" y2="105.5" class="sb" stroke-width="0.5"/><line x1="64.0" y1="115.0" x2="224.0" y2="115.0" class="sb" stroke-width="0.5"/><line x1="64.0" y1="124.5" x2="224.0" y2="124.5" class="sb" stroke-width="0.5"/><line x1="64.0" y1="134.1" x2="224.0" y2="134.1" class="sb" stroke-width="0.5"/><line x1="64.0" y1="143.6" x2="224.0" y2="143.6" class="sb" stroke-width="0.5"/><line x1="64.0" y1="153.1" x2="224.0" y2="153.1" class="sb" stroke-width="0.5"/><line x1="64.0" y1="162.6" x2="224.0" y2="162.6" class="sb" stroke-width="0.5"/><line x1="64.0" y1="172.1" x2="224.0" y2="172.1" class="sb" stroke-width="0.5"/><line x1="64.0" y1="181.6" x2="224.0" y2="181.6" class="sb" stroke-width="0.5"/><line x1="64.0" y1="191.1" x2="224.0" y2="191.1" class="sb" stroke-width="0.5"/><line x1="64.0" y1="200.7" x2="224.0" y2="200.7" class="sb" stroke-width="0.5"/><line x1="64.0" y1="210.2" x2="224.0" y2="210.2" class="sb" stroke-width="0.5"/><line x1="64.0" y1="219.7" x2="224.0" y2="219.7" class="sb" stroke-width="0.5"/><line x1="64.0" y1="229.2" x2="224.0" y2="229.2" class="sb" stroke-width="0.5"/><line x1="64.0" y1="238.7" x2="224.0" y2="238.7" class="sb" stroke-width="0.5"/><line x1="64.0" y1="248.2" x2="224.0" y2="248.2" class="sb" stroke-width="0.5"/><line x1="64.0" y1="257.7" x2="224.0" y2="257.7" class="sb" stroke-width="0.5"/><line x1="64.0" y1="267.3" x2="224.0" y2="267.3" class="sb" stroke-width="0.5"/><line x1="64.0" y1="276.8" x2="224.0" y2="276.8" class="sb" stroke-width="0.5"/><line x1="64.0" y1="286.3" x2="224.0" y2="286.3" class="sb" stroke-width="0.5"/><line x1="64.0" y1="295.8" x2="224.0" y2="295.8" class="sb" stroke-width="0.5"/><line x1="64.0" y1="305.3" x2="224.0" y2="305.3" class="sb" stroke-width="0.5"/><line x1="64.0" y1="314.8" x2="224.0" y2="314.8" class="sb" stroke-width="0.5"/><line x1="64.0" y1="324.3" x2="224.0" y2="324.3" class="sb" stroke-width="0.5"/><line x1="64.0" y1="333.8" x2="224.0" y2="333.8" class="sb" stroke-width="0.5"/><line x1="64.0" y1="343.4" x2="224.0" y2="343.4" class="sb" stroke-width="0.5"/><line x1="64.0" y1="352.9" x2="224.0" y2="352.9" class="sb" stroke-width="0.5"/><line x1="64.0" y1="362.4" x2="224.0" y2="362.4" class="sb" stroke-width="0.5"/><line x1="64.0" y1="371.9" x2="224.0" y2="371.9" class="sb" stroke-width="0.5"/><line x1="64.0" y1="381.4" x2="224.0" y2="381.4" class="sb" stroke-width="0.5"/><line x1="64.0" y1="390.9" x2="224.0" y2="390.9" class="sb" stroke-width="0.5"/><text x="58.0" y="100.0" class="m sm11" text-anchor="end">row 0</text><line x1="64.0" y1="156.8" x2="224.0" y2="156.8" class="sm" stroke-width="1.2"/><text x="58.0" y="160.8" class="m sm11" text-anchor="end">409</text><line x1="64.0" y1="217.6" x2="224.0" y2="217.6" class="sm" stroke-width="1.2"/><text x="58.0" y="221.6" class="m sm11" text-anchor="end">818</text><line x1="64.0" y1="278.4" x2="224.0" y2="278.4" class="sm" stroke-width="1.2"/><text x="58.0" y="282.4" class="m sm11" text-anchor="end">1,227</text><line x1="64.0" y1="339.2" x2="224.0" y2="339.2" class="sm" stroke-width="1.2"/><text x="58.0" y="343.2" class="m sm11" text-anchor="end">1,636</text><line x1="64.0" y1="400.0" x2="224.0" y2="400.0" class="sm" stroke-width="1.2"/><text x="58.0" y="407.0" class="m sm11" text-anchor="end">2,045</text><rect x="64.0" y="96.0" width="160.0" height="312.0" class="none sfg" stroke-width="1"/><rect x="78.0" y="136.7" width="7.0" height="7.0" class="hi"/><text x="77.5" y="132.2" class="mono sm11 b hi">c/297/17</text><text x="352.0" y="32.0" class="b">Index array</text><text x="352.0" y="50.0" class="m sm11">2,048 × 160 × 2 uint64,</text><text x="352.0" y="64.0" class="m sm11">chunks of 409 × 160 × 2</text><line x1="224.0" y1="96.0" x2="352.0" y2="96.0" class="sm" stroke-width="0.8" stroke-dasharray="2 3"/><line x1="224.0" y1="156.8" x2="352.0" y2="156.8" class="sm" stroke-width="0.8" stroke-dasharray="2 3"/><rect x="352.0" y="97.5" width="112.0" height="57.8" class="hibg shi" rx="3" stroke-width="1.5"/><text x="408.0" y="130.4" class="mono sm11" text-anchor="middle">c/0/0/0  320 KB</text><line x1="224.0" y1="156.8" x2="352.0" y2="156.8" class="sm" stroke-width="0.8" stroke-dasharray="2 3"/><line x1="224.0" y1="217.6" x2="352.0" y2="217.6" class="sm" stroke-width="0.8" stroke-dasharray="2 3"/><rect x="352.0" y="158.3" width="112.0" height="57.8" class="refbg sref" rx="3" stroke-width="1"/><text x="408.0" y="191.2" class="mono sm11" text-anchor="middle">c/1/0/0  319 KB</text><line x1="224.0" y1="217.6" x2="352.0" y2="217.6" class="sm" stroke-width="0.8" stroke-dasharray="2 3"/><line x1="224.0" y1="278.4" x2="352.0" y2="278.4" class="sm" stroke-width="0.8" stroke-dasharray="2 3"/><rect x="352.0" y="219.1" width="112.0" height="57.8" class="refbg sref" rx="3" stroke-width="1"/><text x="408.0" y="252.0" class="mono sm11" text-anchor="middle">c/2/0/0  318 KB</text><line x1="224.0" y1="278.4" x2="352.0" y2="278.4" class="sm" stroke-width="0.8" stroke-dasharray="2 3"/><line x1="224.0" y1="339.2" x2="352.0" y2="339.2" class="sm" stroke-width="0.8" stroke-dasharray="2 3"/><rect x="352.0" y="279.9" width="112.0" height="57.8" class="refbg sref" rx="3" stroke-width="1"/><text x="408.0" y="312.8" class="mono sm11" text-anchor="middle">c/3/0/0  311 KB</text><line x1="224.0" y1="339.2" x2="352.0" y2="339.2" class="sm" stroke-width="0.8" stroke-dasharray="2 3"/><line x1="224.0" y1="400.0" x2="352.0" y2="400.0" class="sm" stroke-width="0.8" stroke-dasharray="2 3"/><rect x="352.0" y="340.7" width="112.0" height="57.8" class="refbg sref" rx="3" stroke-width="1"/><text x="408.0" y="373.6" class="mono sm11" text-anchor="middle">c/4/0/0  318 KB</text><line x1="224.0" y1="400.0" x2="352.0" y2="400.0" class="sm" stroke-width="0.8" stroke-dasharray="2 3"/><line x1="224.0" y1="408.0" x2="352.0" y2="408.0" class="sm" stroke-width="0.8" stroke-dasharray="2 3"/><rect x="352.0" y="401.5" width="112.0" height="5.0" class="refbg sref" rx="3" stroke-width="1"/><text x="472.0" y="407.5" class="mono sm11 m">c/5/0/0 (3 rows)</text><line x1="85.5" y1="140.2" x2="350.0" y2="140.2" class="shi" stroke-width="1.5" marker-end="url(#ah-hi)"/><text x="288.0" y="132.2" class="mono sm11 hi" text-anchor="middle">① 297 // 409 = 0</text><text x="574.0" y="32.0" class="b">Index chunk c/0/0/0, decoded</text><text x="574.0" y="50.0" class="m sm11">one (offset, nbytes) pair per data chunk</text><text x="574.0" y="64.0" class="m sm11">in rows 0–408, channels 0–159</text><text x="686.0" y="104.0" class="m sm11" text-anchor="middle">channel 16</text><text x="802.0" y="104.0" class="m sm11" text-anchor="middle">channel 17</text><text x="620.0" y="136.0" class="m sm11" text-anchor="end">row 296</text><rect x="628.0" y="112.0" width="116.0" height="40.0" class="panel sb" stroke-width="1"/><text x="736.0" y="129.0" class="mono sm11" text-anchor="end">11,680,549,102</text><text x="736.0" y="144.0" class="mono sm11 m" text-anchor="end">262,317</text><rect x="744.0" y="112.0" width="116.0" height="40.0" class="panel sb" stroke-width="1"/><text x="852.0" y="129.0" class="mono sm11" text-anchor="end">11,680,811,419</text><text x="852.0" y="144.0" class="mono sm11 m" text-anchor="end">258,517</text><text x="620.0" y="176.0" class="m sm11" text-anchor="end">row 297</text><rect x="628.0" y="152.0" width="116.0" height="40.0" class="panel sb" stroke-width="1"/><text x="736.0" y="169.0" class="mono sm11" text-anchor="end">11,721,089,702</text><text x="736.0" y="184.0" class="mono sm11 m" text-anchor="end">262,834</text><rect x="744.0" y="152.0" width="116.0" height="40.0" class="hibg shi" stroke-width="1.5"/><text x="852.0" y="169.0" class="mono sm11 hi b" text-anchor="end">11,721,352,536</text><text x="852.0" y="184.0" class="mono sm11 hi b" text-anchor="end">258,912</text><text x="620.0" y="216.0" class="m sm11" text-anchor="end">row 298</text><rect x="628.0" y="192.0" width="116.0" height="40.0" class="panel sb" stroke-width="1"/><text x="736.0" y="209.0" class="mono sm11" text-anchor="end">11,761,142,618</text><text x="736.0" y="224.0" class="mono sm11 m" text-anchor="end">263,040</text><rect x="744.0" y="192.0" width="116.0" height="40.0" class="panel sb" stroke-width="1"/><text x="852.0" y="209.0" class="mono sm11" text-anchor="end">11,761,405,658</text><text x="852.0" y="224.0" class="mono sm11 m" text-anchor="end">259,075</text><text x="628.0" y="250.0" class="m sm11">offset (bytes from start of file)</text><text x="628.0" y="264.0" class="m sm11">nbytes (compressed chunk)</text><text x="574.0" y="296.0" class="sm11">c/0/0/0 is read once and cached, so later</text><text x="574.0" y="310.0" class="sm11">reads in rows 0–408 go straight to ③.</text><path d="M 466 140.15061124694375 C 504 140.15061124694375, 534 172.0, 574 172.0" class="shi none" stroke-width="1.5" marker-end="url(#ah-hi)"/><text x="472.0" y="132.2" class="mono sm11 hi">② [297, 17]</text><text x="944.0" y="32.0" class="b" text-anchor="end">HDF5 file</text><text x="944.0" y="50.0" class="m sm11" text-anchor="end">103 GB on S3</text><rect x="918.0" y="96.0" width="26.0" height="312.0" class="file sb" stroke-width="1"/><text x="912.0" y="104.0" class="m sm11" text-anchor="end">0</text><text x="912.0" y="408.0" class="m sm11" text-anchor="end">103 GB</text><rect x="915.0" y="129.5" width="32.0" height="4.0" class="hi"/><path d="M 862 172.0 C 890 172.0, 884 131.5102205411717, 912 131.5102205411717" class="shi none" stroke-width="1.5" marker-end="url(#ah-hi)"/><text x="872.0" y="190.0" class="hi">③</text></g><path d="M 653.358 57 L 653.358 62 Q 653.358 67 648.358 67 L 457 67 Q 452 67 452 72 L 452 74" class="sref none" stroke-width="1.2" stroke-dasharray="4 3" marker-end="url(#ah-ref)"/></svg>
